{
  "accessors": [
    {
      "bufferView": 2,
      "componentType": 5126,
      "count": 3329,
      "max": [
        2.6085898876190186,
        2.6346900463104248,
        2.6142098903656006
      ],
      "min": [
        -2.4876201152801514,
        -2.6118299961090088,
        -2.4484701156616211
      ],
      "type": "VEC3"
    },
    {
      "bufferView": 2,
      "byteOffset": 39948,
      "componentType": 5126,
      "count": 3329,
      "max": [
        0.99970942735671997,
        0.99987465143203735,
        0.99895960092544556
      ],
      "min": [
        -0.99932527542114258,
        -0.99976450204849243,
        -0.9995114803314209
      ],
      "type": "VEC3"
    },
    {
      "bufferView": 3,
      "componentType": 5126,
      "count": 3329,
      "max": [
        0.99608343839645386,
        0.99998968839645386,
        0.99690091609954834,
        1
      ],
      "min": [
        -0.99965500831604004,
        -0.9998924732208252,
        -0.99899536371231079,
        -1
      ],
      "type": "VEC4"
    },
    {
      "bufferView": 1,
      "componentType": 5126,
      "count": 3329,
      "max": [
        0.9575200080871582,
        0.99173998832702637
      ],
      "min": [
        0.040029998868703842,
        0.0055599999614059925
      ],
      "type": "VEC2"
    },
    {
      "bufferView": 0,
      "componentType": 5125,
      "count": 10326,
      "max": [
        3328
      ],
      "min": [
        0
      ],
      "type": "SCALAR"
    }
  ],
  "asset": {
    "extras": {
      "author": "rhcreations (https://sketchfab.com/rhcreations)",
      "license": "CC-BY-4.0 (http://creativecommons.org/licenses/by/4.0/)",
      "source": "https://sketchfab.com/models/2f2a8835e5cc40f98a6e6bc14f58a6f8",
      "title": "Football (Soccerball)"
    },
    "generator": "Sketchfab-3.35.5",
    "version": "2.0"
  },
  "bufferViews": [
    {
      "buffer": 0,
      "byteLength": 41304,
      "byteOffset": 0,
      "name": "floatBufferViews",
      "target": 34963
    },
    {
      "buffer": 0,
      "byteLength": 26632,
      "byteOffset": 41304,
      "byteStride": 8,
      "name": "floatBufferViews",
      "target": 34962
    },
    {
      "buffer": 0,
      "byteLength": 79896,
      "byteOffset": 67936,
      "byteStride": 12,
      "name": "floatBufferViews",
      "target": 34962
    },
    {
      "buffer": 0,
      "byteLength": 53264,
      "byteOffset": 147832,
      "byteStride": 16,
      "name": "floatBufferViews",
      "target": 34962
    }
  ],
  "buffers": [
    {
      "byteLength": 201096,
      "uri": "scene.bin"
    }
  ],
  "extensionsRequired": [
    "KHR_materials_pbrSpecularGlossiness"
  ],
  "extensionsUsed": [
    "KHR_materials_pbrSpecularGlossiness"
  ],
  "images": [
    {
      "uri": "textures/Football_Material_diffuse.png"
    },
    {
      "uri": "textures/Football_Material_specularGlossiness.png"
    }
  ],
  "materials": [
    {
      "doubleSided": true,
      "extensions": {
        "KHR_materials_pbrSpecularGlossiness": {
          "diffuseFactor": [
            0.7280208588,
            0.7280208588,
            0.7280208588,
            1
          ],
          "diffuseTexture": {
            "index": 0,
            "texCoord": 0
          },
          "glossinessFactor": 1,
          "specularFactor": [
            0.0092708588000000001,
            0.0092708588000000001,
            0.0092708588000000001
          ],
          "specularGlossinessTexture": {
            "index": 1,
            "texCoord": 0
          }
        }
      },
      "name": "Football_Material"
    }
  ],
  "meshes": [
    {
      "name": "Football_0",
      "primitives": [
        {
          "attributes": {
            "NORMAL": 1,
            "POSITION": 0,
            "TANGENT": 2,
            "TEXCOORD_0": 3
          },
          "indices": 4,
          "material": 0,
          "mode": 4
        }
      ]
    }
  ],
  "nodes": [
    {
      "children": [
        1
      ],
      "name": "RootNode (gltf orientation matrix)",
      "rotation": [
        -0.70710678118654746,
        -0,
        -0,
        0.70710678118654757
      ]
    },
    {
      "children": [
        2
      ],
      "name": "RootNode (model correction matrix)"
    },
    {
      "children": [
        3
      ],
      "name": "Root"
    },
    {
      "children": [
        4
      ],
      "name": "Football"
    },
    {
      "mesh": 0,
      "name": "Football_0"
    }
  ],
  "samplers": [
    {
      "magFilter": 9729,
      "minFilter": 9987,
      "wrapS": 10497,
      "wrapT": 10497
    }
  ],
  "scene": 0,
  "scenes": [
    {
      "name": "OSG_Scene",
      "nodes": [
        0
      ]
    }
  ],
  "textures": [
    {
      "sampler": 0,
      "source": 0
    },
    {
      "sampler": 0,
      "source": 1
    }
  ]
}

