{
  "accessors": [
    {
      "bufferView": 2,
      "componentType": 5126,
      "count": 25952,
      "max": [
        12.169634819030762,
        18.229602813720703,
        10.903873443603516
      ],
      "min": [
        -1.0819202661514282,
        -2.1614682674407959,
        -7.5111193656921387
      ],
      "type": "VEC3"
    },
    {
      "bufferView": 2,
      "byteOffset": 311424,
      "componentType": 5126,
      "count": 25952,
      "max": [
        0.9997292160987854,
        0.99986892938613892,
        0.99992972612380981
      ],
      "min": [
        -0.99962568283081055,
        -0.9992181658744812,
        -1
      ],
      "type": "VEC3"
    },
    {
      "bufferView": 1,
      "componentType": 5126,
      "count": 25952,
      "max": [
        1.0000003576278687,
        1.0000001192092896
      ],
      "min": [
        0,
        0
      ],
      "type": "VEC2"
    },
    {
      "bufferView": 0,
      "componentType": 5125,
      "count": 38904,
      "max": [
        25951
      ],
      "min": [
        0
      ],
      "type": "SCALAR"
    },
    {
      "bufferView": 2,
      "byteOffset": 622848,
      "componentType": 5126,
      "count": 20960,
      "max": [
        12.232725143432617,
        11.382486343383789,
        6.1999130249023438
      ],
      "min": [
        7.6682109832763672,
        -2.3188643455505371,
        -6.1997470855712891
      ],
      "type": "VEC3"
    },
    {
      "bufferView": 2,
      "byteOffset": 874368,
      "componentType": 5126,
      "count": 20960,
      "max": [
        0.99998217821121216,
        0.99797552824020386,
        0.99969732761383057
      ],
      "min": [
        -0.9997982382774353,
        -0.99967086315155029,
        -0.99977093935012817
      ],
      "type": "VEC3"
    },
    {
      "bufferView": 1,
      "byteOffset": 207616,
      "componentType": 5126,
      "count": 20960,
      "max": [
        0.87500017881393433,
        1.0000001192092896
      ],
      "min": [
        0.12500001490116119,
        0
      ],
      "type": "VEC2"
    },
    {
      "bufferView": 0,
      "byteOffset": 155616,
      "componentType": 5125,
      "count": 31440,
      "max": [
        20959
      ],
      "min": [
        0
      ],
      "type": "SCALAR"
    },
    {
      "bufferView": 2,
      "byteOffset": 1125888,
      "componentType": 5126,
      "count": 13296,
      "max": [
        12.054777145385742,
        16.792924880981445,
        11.157245635986328
      ],
      "min": [
        1.3789291381835938,
        1.4613915681838989,
        -7.7294788360595703
      ],
      "type": "VEC3"
    },
    {
      "bufferView": 2,
      "byteOffset": 1285440,
      "componentType": 5126,
      "count": 13296,
      "max": [
        0.99987614154815674,
        0.99302047491073608,
        0.99958014488220215
      ],
      "min": [
        -0.99760788679122925,
        -0.99822747707366943,
        -0.99960583448410034
      ],
      "type": "VEC3"
    },
    {
      "bufferView": 1,
      "byteOffset": 375296,
      "componentType": 5126,
      "count": 13296,
      "max": [
        1.0000002384185791,
        1.0000001192092896
      ],
      "min": [
        0,
        0
      ],
      "type": "VEC2"
    },
    {
      "bufferView": 0,
      "byteOffset": 281376,
      "componentType": 5125,
      "count": 19944,
      "max": [
        13295
      ],
      "min": [
        0
      ],
      "type": "SCALAR"
    }
  ],
  "asset": {
    "extras": {
      "author": "Sabriny (https://sketchfab.com/sabriny)",
      "license": "CC-BY-4.0 (http://creativecommons.org/licenses/by/4.0/)",
      "source": "https://sketchfab.com/3d-models/cute-fox-78b5d956baa54815b3bddc9d9f3b43de",
      "title": "Cute Fox"
    },
    "generator": "Sketchfab-8.51.0",
    "version": "2.0"
  },
  "bufferViews": [
    {
      "buffer": 0,
      "byteLength": 361152,
      "byteOffset": 0,
      "name": "floatBufferViews",
      "target": 34963
    },
    {
      "buffer": 0,
      "byteLength": 481664,
      "byteOffset": 361152,
      "byteStride": 8,
      "name": "floatBufferViews",
      "target": 34962
    },
    {
      "buffer": 0,
      "byteLength": 1444992,
      "byteOffset": 842816,
      "byteStride": 12,
      "name": "floatBufferViews",
      "target": 34962
    }
  ],
  "buffers": [
    {
      "byteLength": 2287808,
      "uri": "scene.bin"
    }
  ],
  "extensionsRequired": [
    "KHR_materials_pbrSpecularGlossiness"
  ],
  "extensionsUsed": [
    "KHR_materials_pbrSpecularGlossiness"
  ],
  "materials": [
    {
      "doubleSided": true,
      "emissiveFactor": [
        0,
        0,
        0
      ],
      "extensions": {
        "KHR_materials_pbrSpecularGlossiness": {
          "diffuseFactor": [
            0.77476606533754078,
            0.1474021493032121,
            0.033018399098006294,
            1
          ],
          "glossinessFactor": 1,
          "specularFactor": [
            0,
            0,
            0
          ]
        }
      },
      "name": "Material.002"
    },
    {
      "doubleSided": true,
      "emissiveFactor": [
        0,
        0,
        0
      ],
      "extensions": {
        "KHR_materials_pbrSpecularGlossiness": {
          "diffuseFactor": [
            0,
            0,
            0,
            1
          ],
          "glossinessFactor": 0.5,
          "specularFactor": [
            0,
            0,
            0
          ]
        }
      },
      "name": "Material.004"
    },
    {
      "doubleSided": true,
      "emissiveFactor": [
        0,
        0,
        0
      ],
      "extensions": {
        "KHR_materials_pbrSpecularGlossiness": {
          "diffuseFactor": [
            0.80000000000000004,
            0.80000000000000004,
            0.80000000000000004,
            1
          ],
          "glossinessFactor": 0.5,
          "specularFactor": [
            0,
            0,
            0
          ]
        }
      },
      "name": "Material.005"
    }
  ],
  "meshes": [
    {
      "primitives": [
        {
          "attributes": {
            "NORMAL": 1,
            "POSITION": 0,
            "TEXCOORD_0": 2
          },
          "indices": 3,
          "material": 0,
          "mode": 4
        }
      ]
    },
    {
      "primitives": [
        {
          "attributes": {
            "NORMAL": 5,
            "POSITION": 4,
            "TEXCOORD_0": 6
          },
          "indices": 7,
          "material": 1,
          "mode": 4
        }
      ]
    },
    {
      "primitives": [
        {
          "attributes": {
            "NORMAL": 9,
            "POSITION": 8,
            "TEXCOORD_0": 10
          },
          "indices": 11,
          "material": 2,
          "mode": 4
        }
      ]
    }
  ],
  "nodes": [
    {
      "children": [
        1
      ],
      "name": "RootNode (gltf orientation matrix)",
      "rotation": [
        -0.70710678118654746,
        -0,
        -0,
        0.70710678118654757
      ]
    },
    {
      "children": [
        2
      ],
      "name": "RootNode (model correction matrix)"
    },
    {
      "children": [
        3
      ],
      "name": "root"
    },
    {
      "children": [
        4
      ],
      "matrix": [
        1,
        0,
        0,
        0,
        0,
        2.2204460492503131e-16,
        1,
        0,
        0,
        -1,
        2.2204460492503131e-16,
        0,
        0,
        0,
        0,
        1
      ],
      "name": "GLTF_SceneRootNode"
    },
    {
      "children": [
        5,
        6,
        7
      ],
      "matrix": [
        0.26329559087753296,
        0,
        0,
        0,
        0,
        0.26329559087753296,
        0,
        0,
        0,
        0,
        0.26329559087753296,
        0,
        -1.2286581993103027,
        -2.3459694385528564,
        -0.49619472026824951,
        1
      ],
      "name": "Cube.002_1"
    },
    {
      "mesh": 0,
      "name": ""
    },
    {
      "mesh": 1,
      "name": ""
    },
    {
      "mesh": 2,
      "name": ""
    }
  ],
  "scene": 0,
  "scenes": [
    {
      "name": "OSG_Scene",
      "nodes": [
        0
      ]
    }
  ]
}

