{
  "accessors": [
    {
      "bufferView": 2,
      "componentType": 5126,
      "count": 65532,
      "max": [
        0.9058785438537598,
        0.807136595249176,
        -0.0626867339015007
      ],
      "min": [
        -0.989132821559906,
        -0.9889887571334839,
        -0.9975659847259521
      ],
      "type": "VEC3"
    },
    {
      "bufferView": 2,
      "byteOffset": 786384,
      "componentType": 5126,
      "count": 65532,
      "max": [
        0.9850156307220459,
        0.9819175004959106,
        1.0
      ],
      "min": [
        -0.9999232292175293,
        -0.9989446997642517,
        -1.0
      ],
      "type": "VEC3"
    },
    {
      "bufferView": 1,
      "componentType": 5126,
      "count": 65532,
      "max": [
        0.9687501192092896,
        0.5000000596046448
      ],
      "min": [
        0.0,
        0.0
      ],
      "type": "VEC2"
    },
    {
      "bufferView": 0,
      "componentType": 5125,
      "count": 372390,
      "type": "SCALAR"
    },
    {
      "bufferView": 2,
      "byteOffset": 1572768,
      "componentType": 5126,
      "count": 65532,
      "max": [
        0.9254291653633118,
        0.9891327619552612,
        -0.0626867264509201
      ],
      "min": [
        -0.989132821559906,
        -0.9891331791877747,
        -0.9975659847259521
      ],
      "type": "VEC3"
    },
    {
      "bufferView": 2,
      "byteOffset": 2359152,
      "componentType": 5126,
      "count": 65532,
      "max": [
        0.9999536275863647,
        0.9999237060546875,
        1.0
      ],
      "min": [
        -0.9999232292175293,
        -0.9999237060546875,
        -1.0
      ],
      "type": "VEC3"
    },
    {
      "bufferView": 1,
      "byteOffset": 524256,
      "componentType": 5126,
      "count": 65532,
      "max": [
        1.000000238418579,
        0.5000000596046448
      ],
      "min": [
        0.009765608236193657,
        0.0
      ],
      "type": "VEC2"
    },
    {
      "bufferView": 0,
      "byteOffset": 1489560,
      "componentType": 5125,
      "count": 370071,
      "type": "SCALAR"
    },
    {
      "bufferView": 2,
      "byteOffset": 3145536,
      "componentType": 5126,
      "count": 18278,
      "max": [
        0.9254291653633118,
        0.9891327619552612,
        -0.0626867264509201
      ],
      "min": [
        -0.9697574973106384,
        -0.9087799787521362,
        -0.9975659847259521
      ],
      "type": "VEC3"
    },
    {
      "bufferView": 2,
      "byteOffset": 3364872,
      "componentType": 5126,
      "count": 18278,
      "max": [
        0.999953031539917,
        0.9999237060546875,
        1.0
      ],
      "min": [
        -0.9786609411239624,
        -0.9778907895088196,
        -1.0
      ],
      "type": "VEC3"
    },
    {
      "bufferView": 1,
      "byteOffset": 1048512,
      "componentType": 5126,
      "count": 18278,
      "max": [
        1.0000001192092896,
        0.5000000596046448
      ],
      "min": [
        8.940696716308594e-08,
        0.0
      ],
      "type": "VEC2"
    },
    {
      "bufferView": 0,
      "byteOffset": 2969844,
      "componentType": 5125,
      "count": 93123,
      "type": "SCALAR"
    },
    {
      "bufferView": 2,
      "byteOffset": 3584208,
      "componentType": 5126,
      "count": 65532,
      "max": [
        0.9254150390625,
        0.98898845911026,
        0.9975659847259521
      ],
      "min": [
        -0.989132821559906,
        -0.9682518839836121,
        0.06268671900033951
      ],
      "type": "VEC3"
    },
    {
      "bufferView": 2,
      "byteOffset": 4370592,
      "componentType": 5126,
      "count": 65532,
      "max": [
        0.9999611377716064,
        0.9994802474975586,
        1.0
      ],
      "min": [
        -0.9999237060546875,
        -0.9850156307220459,
        -1.0
      ],
      "type": "VEC3"
    },
    {
      "bufferView": 1,
      "byteOffset": 1194736,
      "componentType": 5126,
      "count": 65532,
      "max": [
        1.000000238418579,
        0.5000000596046448
      ],
      "min": [
        0.1289062649011612,
        0.0
      ],
      "type": "VEC2"
    },
    {
      "bufferView": 0,
      "byteOffset": 3342336,
      "componentType": 5125,
      "count": 372507,
      "type": "SCALAR"
    },
    {
      "bufferView": 2,
      "byteOffset": 5156976,
      "componentType": 5126,
      "count": 65532,
      "max": [
        0.9254292249679565,
        0.989132821559906,
        0.9975659847259521
      ],
      "min": [
        -0.989132821559906,
        -0.9891331791877747,
        0.06268671900033951
      ],
      "type": "VEC3"
    },
    {
      "bufferView": 2,
      "byteOffset": 5943360,
      "componentType": 5126,
      "count": 65532,
      "max": [
        0.9999613761901855,
        0.9999237060546875,
        1.0
      ],
      "min": [
        -0.9999237060546875,
        -0.9999237060546875,
        -1.0
      ],
      "type": "VEC3"
    },
    {
      "bufferView": 1,
      "byteOffset": 1718992,
      "componentType": 5126,
      "count": 65532,
      "max": [
        0.9746094346046448,
        0.5000000596046448
      ],
      "min": [
        0.0,
        0.0
      ],
      "type": "VEC2"
    },
    {
      "bufferView": 0,
      "byteOffset": 4832364,
      "componentType": 5125,
      "count": 363636,
      "type": "SCALAR"
    },
    {
      "bufferView": 2,
      "byteOffset": 6729744,
      "componentType": 5126,
      "count": 18742,
      "max": [
        0.8166657090187073,
        0.6945170164108276,
        0.9975659847259521
      ],
      "min": [
        -0.9720515012741089,
        -0.9633224010467529,
        0.07928837835788727
      ],
      "type": "VEC3"
    },
    {
      "bufferView": 2,
      "byteOffset": 6954648,
      "componentType": 5126,
      "count": 18742,
      "max": [
        0.9807388186454773,
        0.9596136212348938,
        1.0
      ],
      "min": [
        -0.9809815883636475,
        -0.6914730072021484,
        -1.0
      ],
      "type": "VEC3"
    },
    {
      "bufferView": 1,
      "byteOffset": 2243248,
      "componentType": 5126,
      "count": 18742,
      "max": [
        0.9863282442092896,
        0.5
      ],
      "min": [
        0.0,
        0.0
      ],
      "type": "VEC2"
    },
    {
      "bufferView": 0,
      "byteOffset": 6286908,
      "componentType": 5125,
      "count": 99441,
      "type": "SCALAR"
    },
    {
      "bufferView": 2,
      "byteOffset": 7179552,
      "componentType": 5126,
      "count": 3589,
      "max": [
        1.0,
        1.0,
        -0.17405879497528076
      ],
      "min": [
        -1.0000001192092896,
        -1.0,
        -1.1271504163742065
      ],
      "type": "VEC3"
    },
    {
      "bufferView": 2,
      "byteOffset": 7222620,
      "componentType": 5126,
      "count": 3589,
      "max": [
        1.0,
        1.0,
        1.0
      ],
      "min": [
        -1.0,
        -1.0,
        -0.7071084380149841
      ],
      "type": "VEC3"
    },
    {
      "bufferView": 1,
      "byteOffset": 2393184,
      "componentType": 5126,
      "count": 3589,
      "max": [
        1.0,
        1.0
      ],
      "min": [
        0.0,
        0.01000000536441803
      ],
      "type": "VEC2"
    },
    {
      "bufferView": 0,
      "byteOffset": 6684672,
      "componentType": 5125,
      "count": 18810,
      "type": "SCALAR"
    },
    {
      "bufferView": 2,
      "byteOffset": 7265688,
      "componentType": 5126,
      "count": 768,
      "max": [
        0.8764474987983704,
        0.8764475584030151,
        -0.21534858644008636
      ],
      "min": [
        -0.8764476776123047,
        -0.8764475584030151,
        -0.23389042913913727
      ],
      "type": "VEC3"
    },
    {
      "bufferView": 2,
      "byteOffset": 7274904,
      "componentType": 5126,
      "count": 768,
      "max": [
        0.7278809547424316,
        0.7278809547424316,
        1.0
      ],
      "min": [
        -0.7278809547424316,
        -0.7278809547424316,
        0.6856968998908997
      ],
      "type": "VEC3"
    },
    {
      "bufferView": 1,
      "byteOffset": 2421896,
      "componentType": 5126,
      "count": 768,
      "max": [
        0.46034741401672363,
        0.46034738421440125
      ],
      "min": [
        0.03965257480740547,
        0.03965258598327637
      ],
      "type": "VEC2"
    },
    {
      "bufferView": 0,
      "byteOffset": 6759912,
      "componentType": 5125,
      "count": 3450,
      "type": "SCALAR"
    },
    {
      "bufferView": 2,
      "byteOffset": 7284120,
      "componentType": 5126,
      "count": 33593,
      "max": [
        0.9379467964172363,
        0.9872304201126099,
        0.9975767135620117
      ],
      "min": [
        -0.9872304201126099,
        -0.9872307181358337,
        -0.9975767135620117
      ],
      "type": "VEC3"
    },
    {
      "bufferView": 2,
      "byteOffset": 7687236,
      "componentType": 5126,
      "count": 33593,
      "max": [
        1.0,
        1.0,
        1.0
      ],
      "min": [
        -1.0,
        -1.0,
        -1.0
      ],
      "type": "VEC3"
    },
    {
      "bufferView": 1,
      "byteOffset": 2428040,
      "componentType": 5126,
      "count": 33593,
      "max": [
        1.000000238418579,
        1.0000001192092896
      ],
      "min": [
        0.0,
        0.0
      ],
      "type": "VEC2"
    },
    {
      "bufferView": 0,
      "byteOffset": 6773712,
      "componentType": 5125,
      "count": 190464,
      "type": "SCALAR"
    }
  ],
  "asset": {
    "extras": {
      "author": "foxradohd (https://sketchfab.com/foxradohd)",
      "license": "CC-BY-4.0 (http://creativecommons.org/licenses/by/4.0/)",
      "source": "https://sketchfab.com/3d-models/pokeball-for-blender-8613f35e2b734ab48a829c9cc371d8a5",
      "title": "Pokeball for Blender"
    },
    "generator": "Sketchfab-12.27.0",
    "version": "2.0"
  },
  "bufferViews": [
    {
      "buffer": 0,
      "byteLength": 7535568,
      "name": "floatBufferViews",
      "target": 34963
    },
    {
      "buffer": 0,
      "byteLength": 2696784,
      "byteOffset": 7535568,
      "byteStride": 8,
      "name": "floatBufferViews",
      "target": 34962
    },
    {
      "buffer": 0,
      "byteLength": 8090352,
      "byteOffset": 10232352,
      "byteStride": 12,
      "name": "floatBufferViews",
      "target": 34962
    }
  ],
  "buffers": [
    {
      "byteLength": 18322704,
      "uri": "scene.bin"
    }
  ],
  "materials": [
    {
      "doubleSided": true,
      "name": "Material.002",
      "pbrMetallicRoughness": {
        "baseColorFactor": [
          0.8,
          0.8,
          0.8,
          1.0
        ],
        "metallicFactor": 0.0,
        "roughnessFactor": 0.8211145618000169
      }
    },
    {
      "doubleSided": true,
      "name": "Material.001",
      "pbrMetallicRoughness": {
        "baseColorFactor": [
          0.8,
          0.0,
          0.0,
          1.0
        ],
        "metallicFactor": 0.0,
        "roughnessFactor": 0.9619689558386836
      }
    },
    {
      "doubleSided": true,
      "name": "Material.005",
      "pbrMetallicRoughness": {
        "baseColorFactor": [
          0.151511,
          0.151511,
          0.151511,
          1.0
        ],
        "metallicFactor": 0.0,
        "roughnessFactor": 0.9520880149430229
      }
    },
    {
      "doubleSided": true,
      "name": "Material.006",
      "pbrMetallicRoughness": {
        "baseColorFactor": [
          0.8,
          0.8,
          0.8,
          1.0
        ],
        "metallicFactor": 0.0,
        "roughnessFactor": 0.8040408205773457
      }
    },
    {
      "doubleSided": true,
      "name": "Material",
      "pbrMetallicRoughness": {
        "baseColorFactor": [
          0.0,
          0.0,
          0.0,
          1.0
        ],
        "metallicFactor": 0.0
      }
    }
  ],
  "meshes": [
    {
      "name": "Capa superior_Material.002_0",
      "primitives": [
        {
          "attributes": {
            "NORMAL": 1,
            "POSITION": 0,
            "TEXCOORD_0": 2
          },
          "indices": 3,
          "material": 0,
          "mode": 4
        }
      ]
    },
    {
      "name": "Capa superior_Material.002_0",
      "primitives": [
        {
          "attributes": {
            "NORMAL": 5,
            "POSITION": 4,
            "TEXCOORD_0": 6
          },
          "indices": 7,
          "material": 0,
          "mode": 4
        }
      ]
    },
    {
      "name": "Capa superior_Material.002_0",
      "primitives": [
        {
          "attributes": {
            "NORMAL": 9,
            "POSITION": 8,
            "TEXCOORD_0": 10
          },
          "indices": 11,
          "material": 0,
          "mode": 4
        }
      ]
    },
    {
      "name": "Capa superior_Material.001_0",
      "primitives": [
        {
          "attributes": {
            "NORMAL": 13,
            "POSITION": 12,
            "TEXCOORD_0": 14
          },
          "indices": 15,
          "material": 1,
          "mode": 4
        }
      ]
    },
    {
      "name": "Capa superior_Material.001_0",
      "primitives": [
        {
          "attributes": {
            "NORMAL": 17,
            "POSITION": 16,
            "TEXCOORD_0": 18
          },
          "indices": 19,
          "material": 1,
          "mode": 4
        }
      ]
    },
    {
      "name": "Capa superior_Material.001_0",
      "primitives": [
        {
          "attributes": {
            "NORMAL": 21,
            "POSITION": 20,
            "TEXCOORD_0": 22
          },
          "indices": 23,
          "material": 1,
          "mode": 4
        }
      ]
    },
    {
      "name": "Cylinder.001_Material.005_0",
      "primitives": [
        {
          "attributes": {
            "NORMAL": 25,
            "POSITION": 24,
            "TEXCOORD_0": 26
          },
          "indices": 27,
          "material": 2,
          "mode": 4
        }
      ]
    },
    {
      "name": "Cylinder.001_Material.006_0",
      "primitives": [
        {
          "attributes": {
            "NORMAL": 29,
            "POSITION": 28,
            "TEXCOORD_0": 30
          },
          "indices": 31,
          "material": 3,
          "mode": 4
        }
      ]
    },
    {
      "name": "Interior_Material_0",
      "primitives": [
        {
          "attributes": {
            "NORMAL": 33,
            "POSITION": 32,
            "TEXCOORD_0": 34
          },
          "indices": 35,
          "material": 4,
          "mode": 4
        }
      ]
    }
  ],
  "nodes": [
    {
      "children": [
        1
      ],
      "matrix": [
        0.17648926377296448,
        0.0,
        0.0,
        0.0,
        0.0,
        3.918848884797754e-17,
        -0.17648926377296448,
        0.0,
        0.0,
        0.17648926377296448,
        3.918848884797754e-17,
        0.0,
        0.0,
        0.0,
        0.0,
        1.0
      ],
      "name": "Sketchfab_model"
    },
    {
      "children": [
        2
      ],
      "matrix": [
        0.009999999776482582,
        0.0,
        0.0,
        0.0,
        0.0,
        0.0,
        0.009999999776482582,
        0.0,
        0.0,
        -0.009999999776482582,
        0.0,
        0.0,
        0.0,
        0.0,
        0.0,
        1.0
      ],
      "name": "3e135907c85c44a081c417baa125faaf.fbx"
    },
    {
      "children": [
        3
      ],
      "name": "RootNode"
    },
    {
      "children": [
        4,
        11,
        14
      ],
      "matrix": [
        34.52362823486328,
        0.0,
        0.0,
        0.0,
        0.0,
        -5.62461483157415e-06,
        -34.52363967895462,
        0.0,
        0.0,
        34.52362442016556,
        -5.624612345601869e-06,
        0.0,
        0.0,
        0.0,
        0.0,
        1.0
      ],
      "name": "Empty"
    },
    {
      "children": [
        5,
        6,
        7,
        8,
        9,
        10
      ],
      "matrix": [
        0.9452640414237976,
        0.0,
        0.0,
        0.0,
        0.0,
        0.9452639222145081,
        0.0,
        0.0,
        0.0,
        0.0,
        0.9452639222145081,
        0.0,
        0.0,
        5.169878828456423e-26,
        -0.0024186379741877317,
        1.0
      ],
      "name": "Capa superior"
    },
    {
      "mesh": 0,
      "name": "Capa superior_Material.002_0"
    },
    {
      "mesh": 1,
      "name": "Capa superior_Material.002_0"
    },
    {
      "mesh": 2,
      "name": "Capa superior_Material.002_0"
    },
    {
      "mesh": 3,
      "name": "Capa superior_Material.001_0"
    },
    {
      "mesh": 4,
      "name": "Capa superior_Material.001_0"
    },
    {
      "mesh": 5,
      "name": "Capa superior_Material.001_0"
    },
    {
      "children": [
        12,
        13
      ],
      "matrix": [
        5.2438356543720485e-08,
        -9.434909540963765e-47,
        -0.2693190574645945,
        0.0,
        1.5777218104419931e-30,
        0.2693190574645996,
        3.0719377830300854e-37,
        0.0,
        0.2693190574645945,
        -1.5777218104420233e-30,
        5.2438356543720485e-08,
        0.0,
        0.9348928332328796,
        -1.9208871890441515e-05,
        -0.002268606098368764,
        1.0
      ],
      "name": "Cylinder.001"
    },
    {
      "mesh": 6,
      "name": "Cylinder.001_Material.005_0"
    },
    {
      "mesh": 7,
      "name": "Cylinder.001_Material.006_0"
    },
    {
      "children": [
        15
      ],
      "matrix": [
        0.9334209561347961,
        0.0,
        0.0,
        0.0,
        0.0,
        0.9334208369255066,
        2.6469779601696883e-23,
        0.0,
        0.0,
        -2.6469779601696883e-23,
        0.9334208369255066,
        0.0,
        0.0,
        5.169878828456423e-26,
        -0.0024186379741877317,
        1.0
      ],
      "name": "Interior"
    },
    {
      "mesh": 8,
      "name": "Interior_Material_0"
    }
  ],
  "scene": 0,
  "scenes": [
    {
      "name": "Sketchfab_Scene",
      "nodes": [
        0
      ]
    }
  ]
}
