{
  "accessors": [
    {
      "bufferView": 2,
      "componentType": 5126,
      "count": 1232,
      "max": [
        34.10386657714844,
        34.1021614074707,
        81.85498809814453
      ],
      "min": [
        -34.10386657714844,
        -34.1021614074707,
        -81.85498809814453
      ],
      "type": "VEC3"
    },
    {
      "bufferView": 2,
      "byteOffset": 14784,
      "componentType": 5126,
      "count": 1232,
      "max": [
        1.0,
        1.0,
        0.3848527669906616
      ],
      "min": [
        -1.0,
        -1.0,
        -0.4764995276927948
      ],
      "type": "VEC3"
    },
    {
      "bufferView": 1,
      "componentType": 5126,
      "count": 1232,
      "max": [
        1.005326747894287,
        0.9841495156288147
      ],
      "min": [
        0.002145807258784771,
        0.007622897624969482
      ],
      "type": "VEC2"
    },
    {
      "bufferView": 0,
      "componentType": 5125,
      "count": 6840,
      "type": "SCALAR"
    },
    {
      "bufferView": 2,
      "byteOffset": 29568,
      "componentType": 5126,
      "count": 1749,
      "max": [
        33.6778564453125,
        33.67618179321289,
        3.747640609741211
      ],
      "min": [
        -33.6778564453125,
        -33.67618179321289,
        -3.747640609741211
      ],
      "type": "VEC3"
    },
    {
      "bufferView": 2,
      "byteOffset": 50556,
      "componentType": 5126,
      "count": 1749,
      "max": [
        0.9231085777282715,
        0.9231085777282715,
        1.0
      ],
      "min": [
        -0.9231085777282715,
        -0.9231085777282715,
        0.38453954458236694
      ],
      "type": "VEC3"
    },
    {
      "bufferView": 0,
      "byteOffset": 27360,
      "componentType": 5125,
      "count": 10260,
      "type": "SCALAR"
    },
    {
      "bufferView": 2,
      "byteOffset": 71544,
      "componentType": 5126,
      "count": 5804,
      "max": [
        29.66788101196289,
        29.673521041870117,
        5.015162467956543
      ],
      "min": [
        -29.66788101196289,
        -29.65928840637207,
        -3.937242269515991
      ],
      "type": "VEC3"
    },
    {
      "bufferView": 2,
      "byteOffset": 141192,
      "componentType": 5126,
      "count": 5804,
      "max": [
        1.0,
        1.0,
        1.0
      ],
      "min": [
        -1.0,
        -1.0,
        -1.0
      ],
      "type": "VEC3"
    },
    {
      "bufferView": 0,
      "byteOffset": 68400,
      "componentType": 5125,
      "count": 34212,
      "type": "SCALAR"
    },
    {
      "bufferView": 2,
      "byteOffset": 210840,
      "componentType": 5126,
      "count": 1232,
      "max": [
        34.10386657714844,
        34.1021614074707,
        81.85498809814453
      ],
      "min": [
        -34.10386657714844,
        -34.1021614074707,
        -81.85498809814453
      ],
      "type": "VEC3"
    },
    {
      "bufferView": 2,
      "byteOffset": 225624,
      "componentType": 5126,
      "count": 1232,
      "max": [
        1.0,
        1.0,
        0.3848527669906616
      ],
      "min": [
        -1.0,
        -1.0,
        -0.4764995276927948
      ],
      "type": "VEC3"
    },
    {
      "bufferView": 1,
      "byteOffset": 9856,
      "componentType": 5126,
      "count": 1232,
      "max": [
        1.005326747894287,
        0.9841495156288147
      ],
      "min": [
        0.002145807258784771,
        0.007622897624969482
      ],
      "type": "VEC2"
    },
    {
      "bufferView": 0,
      "byteOffset": 205248,
      "componentType": 5125,
      "count": 6840,
      "type": "SCALAR"
    },
    {
      "bufferView": 2,
      "byteOffset": 240408,
      "componentType": 5126,
      "count": 1749,
      "max": [
        33.6778564453125,
        33.67618179321289,
        3.747640609741211
      ],
      "min": [
        -33.6778564453125,
        -33.67618179321289,
        -3.747640609741211
      ],
      "type": "VEC3"
    },
    {
      "bufferView": 2,
      "byteOffset": 261396,
      "componentType": 5126,
      "count": 1749,
      "max": [
        0.9231085777282715,
        0.9231085777282715,
        1.0
      ],
      "min": [
        -0.9231085777282715,
        -0.9231085777282715,
        0.38453954458236694
      ],
      "type": "VEC3"
    },
    {
      "bufferView": 0,
      "byteOffset": 232608,
      "componentType": 5125,
      "count": 10260,
      "type": "SCALAR"
    },
    {
      "bufferView": 2,
      "byteOffset": 282384,
      "componentType": 5126,
      "count": 5804,
      "max": [
        29.66788101196289,
        29.673521041870117,
        5.015162467956543
      ],
      "min": [
        -29.66788101196289,
        -29.65928840637207,
        -3.937242269515991
      ],
      "type": "VEC3"
    },
    {
      "bufferView": 2,
      "byteOffset": 352032,
      "componentType": 5126,
      "count": 5804,
      "max": [
        1.0,
        1.0,
        1.0
      ],
      "min": [
        -1.0,
        -1.0,
        -1.0
      ],
      "type": "VEC3"
    },
    {
      "bufferView": 0,
      "byteOffset": 273648,
      "componentType": 5125,
      "count": 34212,
      "type": "SCALAR"
    },
    {
      "bufferView": 2,
      "byteOffset": 421680,
      "componentType": 5126,
      "count": 1232,
      "max": [
        34.10386657714844,
        34.1021614074707,
        81.85498809814453
      ],
      "min": [
        -34.10386657714844,
        -34.1021614074707,
        -81.85498809814453
      ],
      "type": "VEC3"
    },
    {
      "bufferView": 2,
      "byteOffset": 436464,
      "componentType": 5126,
      "count": 1232,
      "max": [
        1.0,
        1.0,
        0.3848527669906616
      ],
      "min": [
        -1.0,
        -1.0,
        -0.4764995276927948
      ],
      "type": "VEC3"
    },
    {
      "bufferView": 1,
      "byteOffset": 19712,
      "componentType": 5126,
      "count": 1232,
      "max": [
        1.005326747894287,
        0.9841495156288147
      ],
      "min": [
        0.002145807258784771,
        0.007622897624969482
      ],
      "type": "VEC2"
    },
    {
      "bufferView": 0,
      "byteOffset": 410496,
      "componentType": 5125,
      "count": 6840,
      "type": "SCALAR"
    },
    {
      "bufferView": 2,
      "byteOffset": 451248,
      "componentType": 5126,
      "count": 1749,
      "max": [
        33.6778564453125,
        33.67618179321289,
        3.747640609741211
      ],
      "min": [
        -33.6778564453125,
        -33.67618179321289,
        -3.747640609741211
      ],
      "type": "VEC3"
    },
    {
      "bufferView": 2,
      "byteOffset": 472236,
      "componentType": 5126,
      "count": 1749,
      "max": [
        0.9231085777282715,
        0.9231085777282715,
        1.0
      ],
      "min": [
        -0.9231085777282715,
        -0.9231085777282715,
        0.38453954458236694
      ],
      "type": "VEC3"
    },
    {
      "bufferView": 0,
      "byteOffset": 437856,
      "componentType": 5125,
      "count": 10260,
      "type": "SCALAR"
    },
    {
      "bufferView": 2,
      "byteOffset": 493224,
      "componentType": 5126,
      "count": 5804,
      "max": [
        29.66788101196289,
        29.673521041870117,
        5.015162467956543
      ],
      "min": [
        -29.66788101196289,
        -29.65928840637207,
        -3.937242269515991
      ],
      "type": "VEC3"
    },
    {
      "bufferView": 2,
      "byteOffset": 562872,
      "componentType": 5126,
      "count": 5804,
      "max": [
        1.0,
        1.0,
        1.0
      ],
      "min": [
        -1.0,
        -1.0,
        -1.0
      ],
      "type": "VEC3"
    },
    {
      "bufferView": 0,
      "byteOffset": 478896,
      "componentType": 5125,
      "count": 34212,
      "type": "SCALAR"
    }
  ],
  "asset": {
    "extras": {
      "author": "eicciv (https://sketchfab.com/eicciv)",
      "license": "CC-BY-4.0 (http://creativecommons.org/licenses/by/4.0/)",
      "source": "https://sketchfab.com/3d-models/sports-drink-can-9bd3798628d147f3a2cfb5f6e32a63f2",
      "title": "Sports Drink CAN"
    },
    "generator": "Sketchfab-11.77.0",
    "version": "2.0"
  },
  "bufferViews": [
    {
      "buffer": 0,
      "byteLength": 615744,
      "name": "floatBufferViews",
      "target": 34963
    },
    {
      "buffer": 0,
      "byteLength": 29568,
      "byteOffset": 615744,
      "byteStride": 8,
      "name": "floatBufferViews",
      "target": 34962
    },
    {
      "buffer": 0,
      "byteLength": 632520,
      "byteOffset": 645312,
      "byteStride": 12,
      "name": "floatBufferViews",
      "target": 34962
    }
  ],
  "buffers": [
    {
      "byteLength": 1277832,
      "uri": "scene.bin"
    }
  ],
  "images": [
    {
      "uri": "textures/material_baseColor.png"
    },
    {
      "uri": "textures/material_2_baseColor.png"
    },
    {
      "uri": "textures/material_3_baseColor.png"
    }
  ],
  "materials": [
    {
      "doubleSided": true,
      "name": "material",
      "pbrMetallicRoughness": {
        "baseColorTexture": {
          "index": 0
        },
        "roughnessFactor": 0.2
      }
    },
    {
      "doubleSided": true,
      "name": "Metal",
      "pbrMetallicRoughness": {
        "baseColorFactor": [
          0.8,
          0.8,
          0.8,
          1.0
        ],
        "roughnessFactor": 0.2
      }
    },
    {
      "doubleSided": true,
      "name": "material_2",
      "pbrMetallicRoughness": {
        "baseColorTexture": {
          "index": 1
        },
        "roughnessFactor": 0.2
      }
    },
    {
      "doubleSided": true,
      "name": "material_3",
      "pbrMetallicRoughness": {
        "baseColorTexture": {
          "index": 2
        },
        "roughnessFactor": 0.2
      }
    }
  ],
  "meshes": [
    {
      "name": "Object_0",
      "primitives": [
        {
          "attributes": {
            "NORMAL": 1,
            "POSITION": 0,
            "TEXCOORD_0": 2
          },
          "indices": 3,
          "material": 0,
          "mode": 4
        }
      ]
    },
    {
      "name": "Object_1",
      "primitives": [
        {
          "attributes": {
            "NORMAL": 5,
            "POSITION": 4
          },
          "indices": 6,
          "material": 1,
          "mode": 4
        }
      ]
    },
    {
      "name": "Object_2",
      "primitives": [
        {
          "attributes": {
            "NORMAL": 8,
            "POSITION": 7
          },
          "indices": 9,
          "material": 1,
          "mode": 4
        }
      ]
    },
    {
      "name": "Object_3",
      "primitives": [
        {
          "attributes": {
            "NORMAL": 11,
            "POSITION": 10,
            "TEXCOORD_0": 12
          },
          "indices": 13,
          "material": 2,
          "mode": 4
        }
      ]
    },
    {
      "name": "Object_4",
      "primitives": [
        {
          "attributes": {
            "NORMAL": 15,
            "POSITION": 14
          },
          "indices": 16,
          "material": 1,
          "mode": 4
        }
      ]
    },
    {
      "name": "Object_5",
      "primitives": [
        {
          "attributes": {
            "NORMAL": 18,
            "POSITION": 17
          },
          "indices": 19,
          "material": 1,
          "mode": 4
        }
      ]
    },
    {
      "name": "Object_6",
      "primitives": [
        {
          "attributes": {
            "NORMAL": 21,
            "POSITION": 20,
            "TEXCOORD_0": 22
          },
          "indices": 23,
          "material": 3,
          "mode": 4
        }
      ]
    },
    {
      "name": "Object_7",
      "primitives": [
        {
          "attributes": {
            "NORMAL": 25,
            "POSITION": 24
          },
          "indices": 26,
          "material": 1,
          "mode": 4
        }
      ]
    },
    {
      "name": "Object_8",
      "primitives": [
        {
          "attributes": {
            "NORMAL": 28,
            "POSITION": 27
          },
          "indices": 29,
          "material": 1,
          "mode": 4
        }
      ]
    }
  ],
  "nodes": [
    {
      "children": [
        1
      ],
      "matrix": [
        1.0,
        0.0,
        0.0,
        0.0,
        0.0,
        2.220446049250313e-16,
        -1.0,
        0.0,
        0.0,
        1.0,
        2.220446049250313e-16,
        0.0,
        0.0,
        0.0,
        0.0,
        1.0
      ],
      "name": "Sketchfab_model"
    },
    {
      "children": [
        2
      ],
      "name": "root"
    },
    {
      "children": [
        3,
        10,
        17
      ],
      "matrix": [
        1.0,
        0.0,
        0.0,
        0.0,
        0.0,
        2.220446049250313e-16,
        1.0,
        0.0,
        0.0,
        -1.0,
        2.220446049250313e-16,
        0.0,
        0.0,
        0.0,
        0.0,
        1.0
      ],
      "name": "GLTF_SceneRootNode"
    },
    {
      "children": [
        4,
        6,
        8
      ],
      "matrix": [
        1.0,
        0.0,
        0.0,
        0.0,
        0.0,
        -1.685873969314855e-07,
        0.9999999999999858,
        0.0,
        0.0,
        -0.9999999999999858,
        -1.685873969314855e-07,
        0.0,
        0.0,
        82.39674377441406,
        0.0,
        1.0
      ],
      "name": "KOR_3"
    },
    {
      "children": [
        5
      ],
      "matrix": [
        1.0,
        0.0,
        0.0,
        0.0,
        0.0,
        1.0,
        0.0,
        0.0,
        0.0,
        0.0,
        1.0,
        0.0,
        0.0,
        0.0,
        -6.448638916015625,
        1.0
      ],
      "name": "Body_0"
    },
    {
      "mesh": 0,
      "name": "Object_5"
    },
    {
      "children": [
        7
      ],
      "matrix": [
        1.0,
        0.0,
        0.0,
        0.0,
        0.0,
        1.0,
        0.0,
        0.0,
        0.0,
        0.0,
        1.0,
        0.0,
        0.0,
        0.0,
        79.15422821044922,
        1.0
      ],
      "name": "Bottom_1"
    },
    {
      "mesh": 1,
      "name": "Object_7"
    },
    {
      "children": [
        9
      ],
      "matrix": [
        1.0,
        0.0,
        0.0,
        0.0,
        0.0,
        1.0,
        0.0,
        0.0,
        0.0,
        0.0,
        1.0,
        0.0,
        0.0,
        0.20653216540813446,
        -87.54168701171875,
        1.0
      ],
      "name": "Top_2"
    },
    {
      "mesh": 2,
      "name": "Object_9"
    },
    {
      "children": [
        11,
        13,
        15
      ],
      "matrix": [
        1.0,
        0.0,
        0.0,
        0.0,
        0.0,
        -1.685873969314855e-07,
        0.9999999999999858,
        0.0,
        0.0,
        -0.9999999999999858,
        -1.685873969314855e-07,
        0.0,
        -108.13855743408203,
        82.39674377441406,
        0.0,
        1.0
      ],
      "name": "JPN_7"
    },
    {
      "children": [
        12
      ],
      "matrix": [
        1.0,
        0.0,
        0.0,
        0.0,
        0.0,
        1.0,
        0.0,
        0.0,
        0.0,
        0.0,
        1.0,
        0.0,
        0.0,
        0.0,
        -6.448638916015625,
        1.0
      ],
      "name": "Body.001_4"
    },
    {
      "mesh": 3,
      "name": "Object_12"
    },
    {
      "children": [
        14
      ],
      "matrix": [
        1.0,
        0.0,
        0.0,
        0.0,
        0.0,
        1.0,
        0.0,
        0.0,
        0.0,
        0.0,
        1.0,
        0.0,
        0.0,
        0.0,
        79.15422821044922,
        1.0
      ],
      "name": "Bottom.001_5"
    },
    {
      "mesh": 4,
      "name": "Object_14"
    },
    {
      "children": [
        16
      ],
      "matrix": [
        1.0,
        0.0,
        0.0,
        0.0,
        0.0,
        1.0,
        0.0,
        0.0,
        0.0,
        0.0,
        1.0,
        0.0,
        0.0,
        0.20653216540813446,
        -87.54168701171875,
        1.0
      ],
      "name": "Top.001_6"
    },
    {
      "mesh": 5,
      "name": "Object_16"
    },
    {
      "children": [
        18,
        20,
        22
      ],
      "matrix": [
        1.0,
        0.0,
        0.0,
        0.0,
        0.0,
        -1.685873969314855e-07,
        0.9999999999999858,
        0.0,
        0.0,
        -0.9999999999999858,
        -1.685873969314855e-07,
        0.0,
        133.36447143554688,
        82.39674377441406,
        0.0,
        1.0
      ],
      "name": "ENG_11"
    },
    {
      "children": [
        19
      ],
      "matrix": [
        1.0,
        0.0,
        0.0,
        0.0,
        0.0,
        1.0,
        0.0,
        0.0,
        0.0,
        0.0,
        1.0,
        0.0,
        0.0,
        0.0,
        -6.448642253875732,
        1.0
      ],
      "name": "Body.002_8"
    },
    {
      "mesh": 6,
      "name": "Object_19"
    },
    {
      "children": [
        21
      ],
      "matrix": [
        1.0,
        0.0,
        0.0,
        0.0,
        0.0,
        1.0,
        0.0,
        0.0,
        0.0,
        0.0,
        1.0,
        0.0,
        0.0,
        0.0,
        79.15422821044922,
        1.0
      ],
      "name": "Bottom.002_9"
    },
    {
      "mesh": 7,
      "name": "Object_21"
    },
    {
      "children": [
        23
      ],
      "matrix": [
        1.0,
        0.0,
        0.0,
        0.0,
        0.0,
        1.0,
        0.0,
        0.0,
        0.0,
        0.0,
        1.0,
        0.0,
        0.0,
        0.20653216540813446,
        -87.54168701171875,
        1.0
      ],
      "name": "Top.002_10"
    },
    {
      "mesh": 8,
      "name": "Object_23"
    }
  ],
  "samplers": [
    {
      "magFilter": 9729,
      "minFilter": 9987,
      "wrapS": 10497,
      "wrapT": 10497
    }
  ],
  "scene": 0,
  "scenes": [
    {
      "name": "Sketchfab_Scene",
      "nodes": [
        0
      ]
    }
  ],
  "textures": [
    {
      "sampler": 0,
      "source": 0
    },
    {
      "sampler": 0,
      "source": 1
    },
    {
      "sampler": 0,
      "source": 2
    }
  ]
}
