{
  "accessors": [
    {
      "bufferView": 2,
      "componentType": 5126,
      "count": 24,
      "max": [
        1.9685039520263672,
        1.9685039520263672,
        3.9370079040527344
      ],
      "min": [
        -1.9685039520263672,
        -1.9685039520263672,
        0.0
      ],
      "type": "VEC3"
    },
    {
      "bufferView": 2,
      "byteOffset": 288,
      "componentType": 5126,
      "count": 24,
      "max": [
        1.0,
        1.0,
        1.0
      ],
      "min": [
        -1.0,
        -1.0,
        -1.0
      ],
      "type": "VEC3"
    },
    {
      "bufferView": 1,
      "componentType": 5126,
      "count": 24,
      "max": [
        0.9784075021743774,
        0.9815611839294434
      ],
      "min": [
        0.5756593942642212,
        0.6794881820678711
      ],
      "type": "VEC2"
    },
    {
      "bufferView": 0,
      "componentType": 5125,
      "count": 36,
      "type": "SCALAR"
    },
    {
      "bufferView": 2,
      "byteOffset": 576,
      "componentType": 5126,
      "count": 24,
      "max": [
        1.9685039520263672,
        1.9685039520263672,
        3.9370079040527344
      ],
      "min": [
        -1.9685039520263672,
        -1.9685039520263672,
        0.0
      ],
      "type": "VEC3"
    },
    {
      "bufferView": 2,
      "byteOffset": 864,
      "componentType": 5126,
      "count": 24,
      "max": [
        1.0,
        1.0,
        1.0
      ],
      "min": [
        -1.0,
        -1.0,
        -1.0
      ],
      "type": "VEC3"
    },
    {
      "bufferView": 1,
      "byteOffset": 192,
      "componentType": 5126,
      "count": 24,
      "max": [
        0.9784075021743774,
        0.9815611839294434
      ],
      "min": [
        0.5756593942642212,
        0.6794881820678711
      ],
      "type": "VEC2"
    },
    {
      "bufferView": 0,
      "byteOffset": 144,
      "componentType": 5125,
      "count": 36,
      "type": "SCALAR"
    },
    {
      "bufferView": 2,
      "byteOffset": 1152,
      "componentType": 5126,
      "count": 24,
      "max": [
        1.9685039520263672,
        1.9685039520263672,
        3.9370079040527344
      ],
      "min": [
        -1.9685039520263672,
        -1.9685039520263672,
        0.0
      ],
      "type": "VEC3"
    },
    {
      "bufferView": 2,
      "byteOffset": 1440,
      "componentType": 5126,
      "count": 24,
      "max": [
        1.0,
        1.0,
        1.0
      ],
      "min": [
        -1.0,
        -1.0,
        -1.0
      ],
      "type": "VEC3"
    },
    {
      "bufferView": 1,
      "byteOffset": 384,
      "componentType": 5126,
      "count": 24,
      "max": [
        0.9784075021743774,
        0.9815611839294434
      ],
      "min": [
        0.5756593942642212,
        0.6794881820678711
      ],
      "type": "VEC2"
    },
    {
      "bufferView": 0,
      "byteOffset": 288,
      "componentType": 5125,
      "count": 36,
      "type": "SCALAR"
    },
    {
      "bufferView": 2,
      "byteOffset": 1728,
      "componentType": 5126,
      "count": 24,
      "max": [
        1.9685039520263672,
        1.9685039520263672,
        3.9370079040527344
      ],
      "min": [
        -1.9685039520263672,
        -1.9685039520263672,
        0.0
      ],
      "type": "VEC3"
    },
    {
      "bufferView": 2,
      "byteOffset": 2016,
      "componentType": 5126,
      "count": 24,
      "max": [
        1.0,
        1.0,
        1.0
      ],
      "min": [
        -1.0,
        -1.0,
        -1.0
      ],
      "type": "VEC3"
    },
    {
      "bufferView": 1,
      "byteOffset": 576,
      "componentType": 5126,
      "count": 24,
      "max": [
        0.9784075021743774,
        0.9815611839294434
      ],
      "min": [
        0.5756593942642212,
        0.6794881820678711
      ],
      "type": "VEC2"
    },
    {
      "bufferView": 0,
      "byteOffset": 432,
      "componentType": 5125,
      "count": 36,
      "type": "SCALAR"
    },
    {
      "bufferView": 2,
      "byteOffset": 2304,
      "componentType": 5126,
      "count": 24,
      "max": [
        1.9685039520263672,
        1.9685039520263672,
        3.9370079040527344
      ],
      "min": [
        -1.9685039520263672,
        -1.9685039520263672,
        0.0
      ],
      "type": "VEC3"
    },
    {
      "bufferView": 2,
      "byteOffset": 2592,
      "componentType": 5126,
      "count": 24,
      "max": [
        1.0,
        1.0,
        1.0
      ],
      "min": [
        -1.0,
        -1.0,
        -1.0
      ],
      "type": "VEC3"
    },
    {
      "bufferView": 1,
      "byteOffset": 768,
      "componentType": 5126,
      "count": 24,
      "max": [
        0.9784075021743774,
        0.9815611839294434
      ],
      "min": [
        0.5756593942642212,
        0.6794881820678711
      ],
      "type": "VEC2"
    },
    {
      "bufferView": 0,
      "byteOffset": 576,
      "componentType": 5125,
      "count": 36,
      "type": "SCALAR"
    },
    {
      "bufferView": 2,
      "byteOffset": 2880,
      "componentType": 5126,
      "count": 24,
      "max": [
        1.9685039520263672,
        1.9685039520263672,
        3.9370079040527344
      ],
      "min": [
        -1.9685039520263672,
        -1.9685039520263672,
        0.0
      ],
      "type": "VEC3"
    },
    {
      "bufferView": 2,
      "byteOffset": 3168,
      "componentType": 5126,
      "count": 24,
      "max": [
        1.0,
        1.0,
        1.0
      ],
      "min": [
        -1.0,
        -1.0,
        -1.0
      ],
      "type": "VEC3"
    },
    {
      "bufferView": 1,
      "byteOffset": 960,
      "componentType": 5126,
      "count": 24,
      "max": [
        0.9784075021743774,
        0.9815611839294434
      ],
      "min": [
        0.5756593942642212,
        0.6794881820678711
      ],
      "type": "VEC2"
    },
    {
      "bufferView": 0,
      "byteOffset": 720,
      "componentType": 5125,
      "count": 36,
      "type": "SCALAR"
    }
  ],
  "asset": {
    "extras": {
      "author": "Karl (https://sketchfab.com/PolyJem)",
      "license": "CC-BY-4.0 (http://creativecommons.org/licenses/by/4.0/)",
      "source": "https://sketchfab.com/3d-models/low-poly-cardboard-box-26fd68a8a06a43ada660db9e25eb851c",
      "title": "Low poly cardboard box"
    },
    "generator": "Sketchfab-11.49.0",
    "version": "2.0"
  },
  "bufferViews": [
    {
      "buffer": 0,
      "byteLength": 864,
      "name": "floatBufferViews",
      "target": 34963
    },
    {
      "buffer": 0,
      "byteLength": 1152,
      "byteOffset": 864,
      "byteStride": 8,
      "name": "floatBufferViews",
      "target": 34962
    },
    {
      "buffer": 0,
      "byteLength": 3456,
      "byteOffset": 2016,
      "byteStride": 12,
      "name": "floatBufferViews",
      "target": 34962
    }
  ],
  "buffers": [
    {
      "byteLength": 5472,
      "uri": "scene.bin"
    }
  ],
  "images": [
    {
      "uri": "textures/CardBoardBox_baseColor.png"
    }
  ],
  "materials": [
    {
      "doubleSided": true,
      "name": "CardBoardBox",
      "pbrMetallicRoughness": {
        "baseColorTexture": {
          "index": 0
        },
        "metallicFactor": 0.0,
        "roughnessFactor": 0.0
      }
    }
  ],
  "meshes": [
    {
      "name": "CardBoardBox05_CardBoardBox_0",
      "primitives": [
        {
          "attributes": {
            "NORMAL": 1,
            "POSITION": 0,
            "TEXCOORD_0": 2
          },
          "indices": 3,
          "material": 0,
          "mode": 4
        }
      ]
    },
    {
      "name": "CardBoardBox03_CardBoardBox_0",
      "primitives": [
        {
          "attributes": {
            "NORMAL": 5,
            "POSITION": 4,
            "TEXCOORD_0": 6
          },
          "indices": 7,
          "material": 0,
          "mode": 4
        }
      ]
    },
    {
      "name": "CardBoardBox02_CardBoardBox_0",
      "primitives": [
        {
          "attributes": {
            "NORMAL": 9,
            "POSITION": 8,
            "TEXCOORD_0": 10
          },
          "indices": 11,
          "material": 0,
          "mode": 4
        }
      ]
    },
    {
      "name": "CardBoardBox01_CardBoardBox_0",
      "primitives": [
        {
          "attributes": {
            "NORMAL": 13,
            "POSITION": 12,
            "TEXCOORD_0": 14
          },
          "indices": 15,
          "material": 0,
          "mode": 4
        }
      ]
    },
    {
      "name": "CardBoardBox00_CardBoardBox_0",
      "primitives": [
        {
          "attributes": {
            "NORMAL": 17,
            "POSITION": 16,
            "TEXCOORD_0": 18
          },
          "indices": 19,
          "material": 0,
          "mode": 4
        }
      ]
    },
    {
      "name": "CardBoardBox04_CardBoardBox_0",
      "primitives": [
        {
          "attributes": {
            "NORMAL": 21,
            "POSITION": 20,
            "TEXCOORD_0": 22
          },
          "indices": 23,
          "material": 0,
          "mode": 4
        }
      ]
    }
  ],
  "nodes": [
    {
      "children": [
        1
      ],
      "matrix": [
        1.0,
        0.0,
        0.0,
        0.0,
        0.0,
        2.220446049250313e-16,
        -1.0,
        0.0,
        0.0,
        1.0,
        2.220446049250313e-16,
        0.0,
        0.0,
        0.0,
        0.0,
        1.0
      ],
      "name": "Sketchfab_model"
    },
    {
      "children": [
        2
      ],
      "matrix": [
        1.0,
        0.0,
        0.0,
        0.0,
        0.0,
        0.0,
        1.0,
        0.0,
        0.0,
        -1.0,
        0.0,
        0.0,
        0.0,
        0.0,
        0.0,
        1.0
      ],
      "name": "CardBoardBox.FBX"
    },
    {
      "children": [
        3,
        6,
        9,
        12,
        15,
        18
      ],
      "name": "RootNode"
    },
    {
      "children": [
        4
      ],
      "matrix": [
        3.798711746996302e-08,
        4.8241629927790703e-17,
        0.8690439462661735,
        0.0,
        0.8690439462661735,
        9.648325985558141e-17,
        -3.798711742172139e-08,
        0.0,
        -4.8241629927790703e-17,
        0.8690439462661743,
        0.0,
        0.0,
        -9.644302368164063,
        2.9300131797790527,
        2.082472324371338,
        1.0
      ],
      "name": "CardBoardBox05"
    },
    {
      "children": [
        5
      ],
      "matrix": [
        1.0,
        0.0,
        -0.0,
        0.0,
        0.0,
        1.0,
        0.0,
        0.0,
        0.0,
        0.0,
        1.0,
        0.0,
        0.0,
        0.0,
        -1.9685035943984985,
        1.0
      ],
      "name": "Object_4"
    },
    {
      "mesh": 0,
      "name": "CardBoardBox05_CardBoardBox_0"
    },
    {
      "children": [
        7
      ],
      "matrix": [
        -0.7755798441126371,
        7.236244489168605e-17,
        -0.39206285968974747,
        0.0,
        -0.39206285968974747,
        1.9296651971116281e-16,
        0.7755798441126371,
        0.0,
        1.2060407481947676e-16,
        0.8690439462661743,
        -1.9296651971116281e-16,
        0.0,
        -13.706937789916992,
        2.9300131797790527,
        2.79923677444458,
        1.0
      ],
      "name": "CardBoardBox03"
    },
    {
      "children": [
        8
      ],
      "matrix": [
        1.0,
        0.0,
        -0.0,
        0.0,
        0.0,
        1.0,
        0.0,
        0.0,
        0.0,
        0.0,
        1.0,
        0.0,
        0.0,
        0.0,
        -1.9685035943984985,
        1.0
      ],
      "name": "Object_7"
    },
    {
      "mesh": 1,
      "name": "CardBoardBox03_CardBoardBox_0"
    },
    {
      "children": [
        10
      ],
      "matrix": [
        0.869043946266161,
        -3.450510258278182e-23,
        1.5194846980648202e-07,
        0.0,
        1.5194846980648202e-07,
        2.894497795667442e-16,
        -0.869043946266161,
        0.0,
        -3.450510258278182e-23,
        0.8690439462661743,
        2.894497795667442e-16,
        0.0,
        -13.122504234313965,
        2.9300131797790527,
        -1.6733770370483398,
        1.0
      ],
      "name": "CardBoardBox02"
    },
    {
      "children": [
        11
      ],
      "matrix": [
        1.0,
        0.0,
        -0.0,
        0.0,
        0.0,
        1.0,
        0.0,
        0.0,
        0.0,
        0.0,
        1.0,
        0.0,
        0.0,
        0.0,
        -1.9685035943984985,
        1.0
      ],
      "name": "Object_10"
    },
    {
      "mesh": 2,
      "name": "CardBoardBox02_CardBoardBox_0"
    },
    {
      "children": [
        13
      ],
      "matrix": [
        0.8625667334347804,
        -1.2060407481947676e-17,
        0.1059056698838064,
        0.0,
        0.1059056698838064,
        0.0,
        -0.8625667334347804,
        0.0,
        1.2060407481947676e-17,
        0.8690439462661743,
        0.0,
        0.0,
        -9.414645195007324,
        2.9300131797790527,
        -2.638638496398926,
        1.0
      ],
      "name": "CardBoardBox01"
    },
    {
      "children": [
        14
      ],
      "matrix": [
        1.0,
        0.0,
        -0.0,
        0.0,
        0.0,
        1.0,
        0.0,
        0.0,
        0.0,
        0.0,
        1.0,
        0.0,
        0.0,
        0.0,
        -1.9685035943984985,
        1.0
      ],
      "name": "Object_13"
    },
    {
      "mesh": 3,
      "name": "CardBoardBox01_CardBoardBox_0"
    },
    {
      "children": [
        16
      ],
      "matrix": [
        0.6227006605210713,
        0.0,
        0.6062023325000547,
        0.0,
        0.6062023325000547,
        0.0,
        -0.6227006605210714,
        0.0,
        0.0,
        0.8690439462661743,
        0.0,
        0.0,
        -11.150470733642578,
        6.359973907470703,
        -2.116840362548828,
        1.0
      ],
      "name": "CardBoardBox00"
    },
    {
      "children": [
        17
      ],
      "matrix": [
        1.0,
        0.0,
        -0.0,
        0.0,
        0.0,
        1.0,
        0.0,
        0.0,
        0.0,
        0.0,
        1.0,
        0.0,
        0.0,
        0.0,
        -1.9685035943984985,
        1.0
      ],
      "name": "Object_16"
    },
    {
      "mesh": 4,
      "name": "CardBoardBox00_CardBoardBox_0"
    },
    {
      "children": [
        19
      ],
      "matrix": [
        -0.14389854386141357,
        0.0,
        -0.8570476005546307,
        0.0,
        -0.8570476005546307,
        5.788995591334884e-16,
        0.14389854386141368,
        0.0,
        3.8593303942232563e-16,
        0.8690439462661742,
        0.0,
        0.0,
        -11.547420501708984,
        6.359973907470703,
        2.082472324371338,
        1.0
      ],
      "name": "CardBoardBox04"
    },
    {
      "children": [
        20
      ],
      "matrix": [
        1.0,
        0.0,
        -0.0,
        0.0,
        0.0,
        1.0,
        0.0,
        0.0,
        0.0,
        0.0,
        1.0,
        0.0,
        0.0,
        0.0,
        -1.9685035943984985,
        1.0
      ],
      "name": "Object_19"
    },
    {
      "mesh": 5,
      "name": "CardBoardBox04_CardBoardBox_0"
    }
  ],
  "samplers": [
    {
      "magFilter": 9729,
      "minFilter": 9987,
      "wrapS": 10497,
      "wrapT": 10497
    }
  ],
  "scene": 0,
  "scenes": [
    {
      "name": "Sketchfab_Scene",
      "nodes": [
        0
      ]
    }
  ],
  "textures": [
    {
      "sampler": 0,
      "source": 0
    }
  ]
}
